# xmcd
#
# Track frame offsets:
#	150
#	14096
#	39580
#	55884
#	81409
#	98621
#	111213
#	129409
#	151987
#	167749
#	182423
#
# Disc length: 2745 seconds
#
# Revision: 1
# Processed by: cddbd v1.5.1PL2 Copyright (c) Steve Scherf et al.
# Submitted via: audiograbber 1.83.01
#
DISCID=870ab70b
DTITLE=Hemphills - Accepted
DYEAR=2000
DGENRE=Southern Gospel
TTITLE0=If You're A Worshipper
TTITLE1=No Wonder They Call Him The Savior
TTITLE2=Hey I'm Accepted
TTITLE3=Holy, Holy Is The Lamb
TTITLE4=America's Too Young To Die
TTITLE5=He Filled A Longing
TTITLE6=Take It To The Throne
TTITLE7=We're Getting Ready For Revival
TTITLE8=My Greatest Treasure
TTITLE9=I Know What You're Talking About
TTITLE10=I'm Trusting The Blood
EXTD=
EXTT0=
EXTT1=
EXTT2=
EXTT3=
EXTT4=
EXTT5=
EXTT6=
EXTT7=
EXTT8=
EXTT9=
EXTT10=
PLAYORDER=
